<?xml version="1.0" encoding="UTF-8" standalone="no"?><!DOCTYPE svg PUBLIC "-//W3C//DTD SVG 1.1//EN" "http://www.w3.org/Graphics/SVG/1.1/DTD/svg11.dtd"><!-- Generated by graphviz version 2.40.1 (20161225.0304)
 --><!-- Title: Automaton Pages: 1 --><svg xmlns="http://www.w3.org/2000/svg" xmlns:xlink="http://www.w3.org/1999/xlink" width="1668pt" height="1102pt" viewBox="0.00 0.00 1668.22 1102.43">
<g id="graph0" class="graph" transform="scale(1 1) rotate(0) translate(4 1098.4343)">
<title>Automaton</title>
<polygon fill="#ffffff" stroke="transparent" points="-4,4 -4,-1098.4343 1664.2194,-1098.4343 1664.2194,4 -4,4"/>
<!-- 0 -->
<g id="node1" class="node">
<title>0</title>
<ellipse fill="none" stroke="#000000" cx="899.698" cy="-1065.0186" rx="91.2796" ry="29.3315"/>
<text text-anchor="middle" x="899.698" y="-1069.2186" font-family="Times,serif" font-size="14.00" fill="#000000">0</text>
<text text-anchor="middle" x="899.698" y="-1052.4186" font-family="Times,serif" font-size="14.00" fill="#000000">$accept -&gt; . lst $end</text>
</g>
<!-- 1 -->
<g id="node2" class="node">
<title>1</title>
<ellipse fill="none" stroke="#000000" cx="508.698" cy="-953.3874" rx="86.3477" ry="29.3315"/>
<text text-anchor="middle" x="508.698" y="-957.5874" font-family="Times,serif" font-size="14.00" fill="#000000">1</text>
<text text-anchor="middle" x="508.698" y="-940.7874" font-family="Times,serif" font-size="14.00" fill="#000000">LNAME -&gt; VAR .</text>
</g>
<!-- 0&#45;&gt;1 -->
<g id="edge1" class="edge">
<title>0-&gt;1</title>
<path fill="none" stroke="#000000" d="M829.5598,-1046.1602C769.4788,-1029.8571 680.7148,-1005.4173 603.698,-982.803 596.6936,-980.7463 589.4115,-978.5666 582.1345,-976.3606"/>
<polygon fill="#000000" stroke="#000000" points="582.827,-972.9127 572.241,-973.3452 580.7861,-979.6086 582.827,-972.9127"/>
<text text-anchor="middle" x="740.4729" y="-1005.003" font-family="Times,serif" font-size="14.00" fill="#000000">VAR</text>
</g>
<!-- 2 -->
<g id="node3" class="node">
<title>2</title>
<ellipse fill="none" stroke="#000000" cx="701.698" cy="-953.3874" rx="88.8694" ry="29.3315"/>
<text text-anchor="middle" x="701.698" y="-957.5874" font-family="Times,serif" font-size="14.00" fill="#000000">2</text>
<text text-anchor="middle" x="701.698" y="-940.7874" font-family="Times,serif" font-size="14.00" fill="#000000">CHECK -&gt; RESK .</text>
</g>
<!-- 0&#45;&gt;2 -->
<g id="edge2" class="edge">
<title>0-&gt;2</title>
<path fill="none" stroke="#000000" d="M854.2728,-1039.4082C824.9688,-1022.8867 786.703,-1001.3127 755.8245,-983.9035"/>
<polygon fill="#000000" stroke="#000000" points="757.3417,-980.7411 746.9119,-978.8787 753.9039,-986.8387 757.3417,-980.7411"/>
<text text-anchor="middle" x="830.5872" y="-1005.003" font-family="Times,serif" font-size="14.00" fill="#000000">RESK</text>
</g>
<!-- 3 -->
<g id="node4" class="node">
<title>3</title>
<ellipse fill="none" stroke="#000000" cx="899.698" cy="-953.3874" rx="91.2796" ry="29.3315"/>
<text text-anchor="middle" x="899.698" y="-957.5874" font-family="Times,serif" font-size="14.00" fill="#000000">3</text>
<text text-anchor="middle" x="899.698" y="-940.7874" font-family="Times,serif" font-size="14.00" fill="#000000">$accept -&gt; lst . $end</text>
</g>
<!-- 0&#45;&gt;3 -->
<g id="edge3" class="edge">
<title>0-&gt;3</title>
<path fill="none" stroke="#000000" stroke-dasharray="5,2" d="M899.698,-1035.3966C899.698,-1022.5286 899.698,-1007.2584 899.698,-993.4036"/>
<polygon fill="#000000" stroke="#000000" points="903.1981,-993.1478 899.698,-983.1478 896.1981,-993.1479 903.1981,-993.1478"/>
<text text-anchor="middle" x="906.3109" y="-1005.003" font-family="Times,serif" font-size="14.00" fill="#000000">lst</text>
</g>
<!-- 4 -->
<g id="node5" class="node">
<title>4</title>
<ellipse fill="none" stroke="#000000" cx="1107.698" cy="-953.3874" rx="98.6449" ry="29.3315"/>
<text text-anchor="middle" x="1107.698" y="-957.5874" font-family="Times,serif" font-size="14.00" fill="#000000">4</text>
<text text-anchor="middle" x="1107.698" y="-940.7874" font-family="Times,serif" font-size="14.00" fill="#000000">lst -&gt; LNAME . EQ T</text>
</g>
<!-- 0&#45;&gt;4 -->
<g id="edge4" class="edge">
<title>0-&gt;4</title>
<path fill="none" stroke="#000000" stroke-dasharray="5,2" d="M946.8965,-1039.6878C977.6829,-1023.165 1018.0488,-1001.5011 1050.6349,-984.0125"/>
<polygon fill="#000000" stroke="#000000" points="1052.449,-987.0112 1059.6051,-979.1983 1049.1388,-980.8433 1052.449,-987.0112"/>
<text text-anchor="middle" x="1041.5795" y="-1005.003" font-family="Times,serif" font-size="14.00" fill="#000000">LNAME</text>
</g>
<!-- 5 -->
<g id="node6" class="node">
<title>5</title>
<ellipse fill="none" stroke="#000000" cx="1323.698" cy="-953.3874" rx="98.6468" ry="29.3315"/>
<text text-anchor="middle" x="1323.698" y="-957.5874" font-family="Times,serif" font-size="14.00" fill="#000000">5</text>
<text text-anchor="middle" x="1323.698" y="-940.7874" font-family="Times,serif" font-size="14.00" fill="#000000">LNAME -&gt; CHECK .</text>
</g>
<!-- 0&#45;&gt;5 -->
<g id="edge5" class="edge">
<title>0-&gt;5</title>
<path fill="none" stroke="#000000" stroke-dasharray="5,2" d="M971.2951,-1046.6385C1035.3827,-1030.1272 1131.8862,-1005.1189 1215.698,-982.803 1223.9526,-980.6051 1232.5567,-978.2947 1241.1468,-975.9753"/>
<polygon fill="#000000" stroke="#000000" points="1242.0811,-979.3484 1250.82,-973.3583 1240.253,-972.5914 1242.0811,-979.3484"/>
<text text-anchor="middle" x="1170.4175" y="-1005.003" font-family="Times,serif" font-size="14.00" fill="#000000">CHECK</text>
</g>
<!-- 6 -->
<g id="node7" class="node">
<title>6</title>
<ellipse fill="none" stroke="#000000" cx="899.698" cy="-841.7561" rx="91.2796" ry="29.3315"/>
<text text-anchor="middle" x="899.698" y="-845.9561" font-family="Times,serif" font-size="14.00" fill="#000000">6</text>
<text text-anchor="middle" x="899.698" y="-829.1561" font-family="Times,serif" font-size="14.00" fill="#000000">$accept -&gt; lst $end .</text>
</g>
<!-- 3&#45;&gt;6 -->
<g id="edge6" class="edge">
<title>3-&gt;6</title>
<path fill="none" stroke="#000000" d="M899.698,-923.7653C899.698,-910.8973 899.698,-895.6271 899.698,-881.7723"/>
<polygon fill="#000000" stroke="#000000" points="903.1981,-881.5165 899.698,-871.5166 896.1981,-881.5166 903.1981,-881.5165"/>
<text text-anchor="middle" x="913.3053" y="-893.3717" font-family="Times,serif" font-size="14.00" fill="#000000">$end</text>
</g>
<!-- 7 -->
<g id="node8" class="node">
<title>7</title>
<ellipse fill="none" stroke="#000000" cx="1107.698" cy="-841.7561" rx="98.6449" ry="29.3315"/>
<text text-anchor="middle" x="1107.698" y="-845.9561" font-family="Times,serif" font-size="14.00" fill="#000000">7</text>
<text text-anchor="middle" x="1107.698" y="-829.1561" font-family="Times,serif" font-size="14.00" fill="#000000">lst -&gt; LNAME EQ . T</text>
</g>
<!-- 4&#45;&gt;7 -->
<g id="edge7" class="edge">
<title>4-&gt;7</title>
<path fill="none" stroke="#000000" d="M1107.698,-923.7653C1107.698,-910.8973 1107.698,-895.6271 1107.698,-881.7723"/>
<polygon fill="#000000" stroke="#000000" points="1111.1981,-881.5165 1107.698,-871.5166 1104.1981,-881.5166 1111.1981,-881.5165"/>
<text text-anchor="middle" x="1117.0276" y="-893.3717" font-family="Times,serif" font-size="14.00" fill="#000000">EQ</text>
</g>
<!-- 8 -->
<g id="node9" class="node">
<title>8</title>
<ellipse fill="none" stroke="#000000" cx="928.698" cy="-718.2454" rx="150.5428" ry="41.0911"/>
<text text-anchor="middle" x="928.698" y="-730.8454" font-family="Times,serif" font-size="14.00" fill="#000000">8</text>
<text text-anchor="middle" x="928.698" y="-714.0454" font-family="Times,serif" font-size="14.00" fill="#000000">T -&gt; OPEN_SQ . CLOS_SQ</text>
<text text-anchor="middle" x="928.698" y="-697.2454" font-family="Times,serif" font-size="14.00" fill="#000000">T -&gt; OPEN_SQ . DICT CLOS_SQ</text>
</g>
<!-- 7&#45;&gt;8 -->
<g id="edge8" class="edge">
<title>7-&gt;8</title>
<path fill="none" stroke="#000000" d="M1068.4157,-814.6511C1046.3175,-799.4033 1018.1803,-779.9885 992.9563,-762.5838"/>
<polygon fill="#000000" stroke="#000000" points="994.7453,-759.5659 984.5267,-756.7674 990.7697,-765.3275 994.7453,-759.5659"/>
<text text-anchor="middle" x="1065.4168" y="-781.7404" font-family="Times,serif" font-size="14.00" fill="#000000">OPEN_SQ</text>
</g>
<!-- 9 -->
<g id="node10" class="node">
<title>9</title>
<ellipse fill="none" stroke="#000000" cx="1195.698" cy="-718.2454" rx="98.6449" ry="29.3315"/>
<text text-anchor="middle" x="1195.698" y="-722.4454" font-family="Times,serif" font-size="14.00" fill="#000000">9</text>
<text text-anchor="middle" x="1195.698" y="-705.6454" font-family="Times,serif" font-size="14.00" fill="#000000">lst -&gt; LNAME EQ T .</text>
</g>
<!-- 7&#45;&gt;9 -->
<g id="edge9" class="edge">
<title>7-&gt;9</title>
<path fill="none" stroke="#000000" stroke-dasharray="5,2" d="M1128.3301,-812.7983C1140.5772,-795.6092 1156.2268,-773.6444 1169.3596,-755.2122"/>
<polygon fill="#000000" stroke="#000000" points="1172.243,-757.197 1175.1952,-747.0217 1166.542,-753.135 1172.243,-757.197"/>
<text text-anchor="middle" x="1155.9743" y="-781.7404" font-family="Times,serif" font-size="14.00" fill="#000000">T</text>
</g>
<!-- 10 -->
<g id="node11" class="node">
<title>10</title>
<ellipse fill="none" stroke="#000000" cx="543.698" cy="-559.0965" rx="124.9099" ry="29.3315"/>
<text text-anchor="middle" x="543.698" y="-563.2965" font-family="Times,serif" font-size="14.00" fill="#000000">10</text>
<text text-anchor="middle" x="543.698" y="-546.4965" font-family="Times,serif" font-size="14.00" fill="#000000">T -&gt; OPEN_SQ CLOS_SQ .</text>
</g>
<!-- 8&#45;&gt;10 -->
<g id="edge10" class="edge">
<title>8-&gt;10</title>
<path fill="none" stroke="#000000" d="M835.4934,-685.6519C787.8641,-668.4058 729.2326,-646.2623 677.698,-624.1504 653.6775,-613.8439 627.7362,-601.535 605.1352,-590.4115"/>
<polygon fill="#000000" stroke="#000000" points="606.5125,-587.188 595.9975,-585.8896 603.4078,-593.4618 606.5125,-587.188"/>
<text text-anchor="middle" x="790.0318" y="-646.3504" font-family="Times,serif" font-size="14.00" fill="#000000">CLOS_SQ</text>
</g>
<!-- 11 -->
<g id="node12" class="node">
<title>11</title>
<ellipse fill="none" stroke="#000000" cx="928.698" cy="-559.0965" rx="241.645" ry="65.1077"/>
<text text-anchor="middle" x="928.698" y="-588.4965" font-family="Times,serif" font-size="14.00" fill="#000000">11</text>
<text text-anchor="middle" x="928.698" y="-571.6965" font-family="Times,serif" font-size="14.00" fill="#000000">DICT -&gt; OPEN_BR . REP_PAIR CLOS_BR</text>
<text text-anchor="middle" x="928.698" y="-554.8965" font-family="Times,serif" font-size="14.00" fill="#000000">DICT -&gt; OPEN_BR . REP_PAIR CLOS_BR COMMA X</text>
<text text-anchor="middle" x="928.698" y="-538.0965" font-family="Times,serif" font-size="14.00" fill="#000000">DICT -&gt; OPEN_BR . CLOS_BR COMMA X</text>
<text text-anchor="middle" x="928.698" y="-521.2965" font-family="Times,serif" font-size="14.00" fill="#000000">DICT -&gt; OPEN_BR . CLOS_BR</text>
</g>
<!-- 8&#45;&gt;11 -->
<g id="edge11" class="edge">
<title>8-&gt;11</title>
<path fill="none" stroke="#000000" d="M928.698,-676.8464C928.698,-663.8258 928.698,-649.018 928.698,-634.4028"/>
<polygon fill="#000000" stroke="#000000" points="932.1981,-634.3397 928.698,-624.3397 925.1981,-634.3397 932.1981,-634.3397"/>
<text text-anchor="middle" x="959.8088" y="-646.3504" font-family="Times,serif" font-size="14.00" fill="#000000">OPEN_BR</text>
</g>
<!-- 12 -->
<g id="node13" class="node">
<title>12</title>
<ellipse fill="none" stroke="#000000" cx="1424.698" cy="-559.0965" rx="150.5428" ry="29.3315"/>
<text text-anchor="middle" x="1424.698" y="-563.2965" font-family="Times,serif" font-size="14.00" fill="#000000">12</text>
<text text-anchor="middle" x="1424.698" y="-546.4965" font-family="Times,serif" font-size="14.00" fill="#000000">T -&gt; OPEN_SQ DICT . CLOS_SQ</text>
</g>
<!-- 8&#45;&gt;12 -->
<g id="edge12" class="edge">
<title>8-&gt;12</title>
<path fill="none" stroke="#000000" stroke-dasharray="5,2" d="M1026.6917,-686.8027C1116.9002,-657.858 1249.5236,-615.3038 1336.49,-587.3994"/>
<polygon fill="#000000" stroke="#000000" points="1337.6208,-590.7124 1346.0733,-584.3244 1335.4821,-584.0471 1337.6208,-590.7124"/>
<text text-anchor="middle" x="1179.0262" y="-646.3504" font-family="Times,serif" font-size="14.00" fill="#000000">DICT</text>
</g>
<!-- 13 -->
<g id="node14" class="node">
<title>13</title>
<ellipse fill="none" stroke="#000000" cx="1192.698" cy="-399.9477" rx="148.7563" ry="41.0911"/>
<text text-anchor="middle" x="1192.698" y="-412.5477" font-family="Times,serif" font-size="14.00" fill="#000000">13</text>
<text text-anchor="middle" x="1192.698" y="-395.7477" font-family="Times,serif" font-size="14.00" fill="#000000">REP_PAIR -&gt; PAIR .</text>
<text text-anchor="middle" x="1192.698" y="-378.9477" font-family="Times,serif" font-size="14.00" fill="#000000">REP_PAIR -&gt; PAIR . COMMA Y</text>
</g>
<!-- 11&#45;&gt;13 -->
<g id="edge13" class="edge">
<title>11-&gt;13</title>
<path fill="none" stroke="#000000" d="M1027.3773,-499.6091C1058.5678,-480.8063 1092.4142,-460.4025 1121.3104,-442.9828"/>
<polygon fill="#000000" stroke="#000000" points="1123.3536,-445.8379 1130.1109,-437.6775 1119.7396,-439.8429 1123.3536,-445.8379"/>
<text text-anchor="middle" x="1108.6412" y="-463.4427" font-family="Times,serif" font-size="14.00" fill="#000000">PAIR</text>
</g>
<!-- 14 -->
<g id="node15" class="node">
<title>14</title>
<ellipse fill="none" stroke="#000000" cx="193.698" cy="-399.9477" rx="193.8963" ry="41.0911"/>
<text text-anchor="middle" x="193.698" y="-412.5477" font-family="Times,serif" font-size="14.00" fill="#000000">14</text>
<text text-anchor="middle" x="193.698" y="-395.7477" font-family="Times,serif" font-size="14.00" fill="#000000">DICT -&gt; OPEN_BR CLOS_BR . COMMA X</text>
<text text-anchor="middle" x="193.698" y="-378.9477" font-family="Times,serif" font-size="14.00" fill="#000000">DICT -&gt; OPEN_BR CLOS_BR .</text>
</g>
<!-- 11&#45;&gt;14 -->
<g id="edge14" class="edge">
<title>11-&gt;14</title>
<path fill="none" stroke="#000000" d="M763.9429,-511.426C735.388,-504.5945 705.8334,-498.4127 677.698,-494.0427 532.7942,-471.536 490.1068,-513.1818 348.2464,-476.0427 320.6749,-468.8245 292.2144,-456.4356 267.3474,-443.7259"/>
<polygon fill="#000000" stroke="#000000" points="268.842,-440.558 258.3568,-439.0378 265.6055,-446.7649 268.842,-440.558"/>
<text text-anchor="middle" x="379.4238" y="-463.4427" font-family="Times,serif" font-size="14.00" fill="#000000">CLOS_BR</text>
</g>
<!-- 15 -->
<g id="node16" class="node">
<title>15</title>
<ellipse fill="none" stroke="#000000" cx="745.698" cy="-399.9477" rx="241.645" ry="41.0911"/>
<text text-anchor="middle" x="745.698" y="-412.5477" font-family="Times,serif" font-size="14.00" fill="#000000">15</text>
<text text-anchor="middle" x="745.698" y="-395.7477" font-family="Times,serif" font-size="14.00" fill="#000000">DICT -&gt; OPEN_BR REP_PAIR . CLOS_BR</text>
<text text-anchor="middle" x="745.698" y="-378.9477" font-family="Times,serif" font-size="14.00" fill="#000000">DICT -&gt; OPEN_BR REP_PAIR . CLOS_BR COMMA X</text>
</g>
<!-- 11&#45;&gt;15 -->
<g id="edge15" class="edge">
<title>11-&gt;15</title>
<path fill="none" stroke="#000000" stroke-dasharray="5,2" d="M857.1592,-496.8817C838.2949,-480.476 818.2406,-463.0355 800.4194,-447.5369"/>
<polygon fill="#000000" stroke="#000000" points="802.2431,-444.4846 792.4007,-440.5633 797.6496,-449.7666 802.2431,-444.4846"/>
<text text-anchor="middle" x="864.9771" y="-463.4427" font-family="Times,serif" font-size="14.00" fill="#000000">REP_PAIR</text>
</g>
<!-- 16 -->
<g id="node17" class="node">
<title>16</title>
<ellipse fill="none" stroke="#000000" cx="1509.698" cy="-399.9477" rx="150.5428" ry="29.3315"/>
<text text-anchor="middle" x="1509.698" y="-404.1477" font-family="Times,serif" font-size="14.00" fill="#000000">16</text>
<text text-anchor="middle" x="1509.698" y="-387.3477" font-family="Times,serif" font-size="14.00" fill="#000000">T -&gt; OPEN_SQ DICT CLOS_SQ .</text>
</g>
<!-- 12&#45;&gt;16 -->
<g id="edge16" class="edge">
<title>12-&gt;16</title>
<path fill="none" stroke="#000000" d="M1440.4867,-529.5348C1454.2034,-503.8524 1474.1629,-466.4815 1489.1269,-438.4638"/>
<polygon fill="#000000" stroke="#000000" points="1492.3701,-439.8207 1493.994,-429.3511 1486.1955,-436.5229 1492.3701,-439.8207"/>
<text text-anchor="middle" x="1508.0318" y="-463.4427" font-family="Times,serif" font-size="14.00" fill="#000000">CLOS_SQ</text>
</g>
<!-- 17 -->
<g id="node18" class="node">
<title>17</title>
<ellipse fill="none" stroke="#000000" cx="1230.698" cy="-264.5576" rx="148.7563" ry="29.3315"/>
<text text-anchor="middle" x="1230.698" y="-268.7576" font-family="Times,serif" font-size="14.00" fill="#000000">17</text>
<text text-anchor="middle" x="1230.698" y="-251.9576" font-family="Times,serif" font-size="14.00" fill="#000000">REP_PAIR -&gt; PAIR COMMA . Y</text>
</g>
<!-- 13&#45;&gt;17 -->
<g id="edge17" class="edge">
<title>13-&gt;17</title>
<path fill="none" stroke="#000000" d="M1172.7523,-359.0152C1169.6451,-347.4416 1168.7555,-334.9744 1173.259,-323.8526 1176.5841,-315.6412 1181.6522,-307.9382 1187.4277,-300.9768"/>
<polygon fill="#000000" stroke="#000000" points="1190.3775,-302.9317 1194.4706,-293.1595 1185.1768,-298.2463 1190.3775,-302.9317"/>
<text text-anchor="middle" x="1200.9175" y="-328.0526" font-family="Times,serif" font-size="14.00" fill="#000000">COMMA</text>
</g>
<!-- 18 -->
<g id="node19" class="node">
<title>18</title>
<ellipse fill="none" stroke="#000000" cx="266.698" cy="-264.5576" rx="193.8963" ry="29.3315"/>
<text text-anchor="middle" x="266.698" y="-268.7576" font-family="Times,serif" font-size="14.00" fill="#000000">18</text>
<text text-anchor="middle" x="266.698" y="-251.9576" font-family="Times,serif" font-size="14.00" fill="#000000">DICT -&gt; OPEN_BR CLOS_BR COMMA . X</text>
</g>
<!-- 14&#45;&gt;18 -->
<g id="edge18" class="edge">
<title>14-&gt;18</title>
<path fill="none" stroke="#000000" d="M215.9971,-358.5905C225.4784,-341.0059 236.4744,-320.6122 245.7977,-303.3206"/>
<polygon fill="#000000" stroke="#000000" points="249.1197,-304.5341 250.785,-294.0709 242.9583,-301.2119 249.1197,-304.5341"/>
<text text-anchor="middle" x="261.9175" y="-328.0526" font-family="Times,serif" font-size="14.00" fill="#000000">COMMA</text>
</g>
<!-- 19 -->
<g id="node20" class="node">
<title>19</title>
<ellipse fill="none" stroke="#000000" cx="745.698" cy="-264.5576" rx="241.645" ry="41.0911"/>
<text text-anchor="middle" x="745.698" y="-277.1576" font-family="Times,serif" font-size="14.00" fill="#000000">19</text>
<text text-anchor="middle" x="745.698" y="-260.3576" font-family="Times,serif" font-size="14.00" fill="#000000">DICT -&gt; OPEN_BR REP_PAIR CLOS_BR .</text>
<text text-anchor="middle" x="745.698" y="-243.5576" font-family="Times,serif" font-size="14.00" fill="#000000">DICT -&gt; OPEN_BR REP_PAIR CLOS_BR . COMMA X</text>
</g>
<!-- 15&#45;&gt;19 -->
<g id="edge19" class="edge">
<title>15-&gt;19</title>
<path fill="none" stroke="#000000" d="M745.698,-358.5905C745.698,-345.1991 745.698,-330.1786 745.698,-316.1397"/>
<polygon fill="#000000" stroke="#000000" points="749.1981,-316.128 745.698,-306.128 742.1981,-316.1281 749.1981,-316.128"/>
<text text-anchor="middle" x="776.4238" y="-328.0526" font-family="Times,serif" font-size="14.00" fill="#000000">CLOS_BR</text>
</g>
<!-- 17&#45;&gt;13 -->
<g id="edge20" class="edge">
<title>17-&gt;13</title>
<path fill="none" stroke="#000000" d="M1232.8637,-294.008C1233.0857,-308.3501 1232.1041,-325.6867 1227.698,-340.6526 1226.7696,-343.8061 1225.6368,-346.9663 1224.3542,-350.0954"/>
<polygon fill="#000000" stroke="#000000" points="1221.0967,-348.8026 1220.1116,-359.3516 1227.4601,-351.7194 1221.0967,-348.8026"/>
<text text-anchor="middle" x="1247.6412" y="-328.0526" font-family="Times,serif" font-size="14.00" fill="#000000">PAIR</text>
</g>
<!-- 20 -->
<g id="node21" class="node">
<title>20</title>
<ellipse fill="none" stroke="#000000" cx="1185.698" cy="-141.0469" rx="82.7743" ry="29.3315"/>
<text text-anchor="middle" x="1185.698" y="-145.2469" font-family="Times,serif" font-size="14.00" fill="#000000">20</text>
<text text-anchor="middle" x="1185.698" y="-128.4469" font-family="Times,serif" font-size="14.00" fill="#000000">Y -&gt; REP_PAIR .</text>
</g>
<!-- 17&#45;&gt;20 -->
<g id="edge21" class="edge">
<title>17-&gt;20</title>
<path fill="none" stroke="#000000" stroke-dasharray="5,2" d="M1219.9194,-234.9737C1213.9082,-218.4747 1206.3482,-197.7252 1199.8638,-179.9275"/>
<polygon fill="#000000" stroke="#000000" points="1203.1006,-178.5871 1196.3887,-170.3894 1196.5235,-180.9834 1203.1006,-178.5871"/>
<text text-anchor="middle" x="1240.9771" y="-192.6626" font-family="Times,serif" font-size="14.00" fill="#000000">REP_PAIR</text>
</g>
<!-- 21 -->
<g id="node22" class="node">
<title>21</title>
<ellipse fill="none" stroke="#000000" cx="1435.698" cy="-141.0469" rx="148.7563" ry="29.3315"/>
<text text-anchor="middle" x="1435.698" y="-145.2469" font-family="Times,serif" font-size="14.00" fill="#000000">21</text>
<text text-anchor="middle" x="1435.698" y="-128.4469" font-family="Times,serif" font-size="14.00" fill="#000000">REP_PAIR -&gt; PAIR COMMA Y .</text>
</g>
<!-- 17&#45;&gt;21 -->
<g id="edge22" class="edge">
<title>17-&gt;21</title>
<path fill="none" stroke="#000000" stroke-dasharray="5,2" d="M1277.2157,-236.5311C1307.7741,-218.12 1347.9086,-193.9393 1380.1425,-174.5187"/>
<polygon fill="#000000" stroke="#000000" points="1382.2508,-177.3346 1389.0101,-169.176 1378.6383,-171.3388 1382.2508,-177.3346"/>
<text text-anchor="middle" x="1356.7513" y="-192.6626" font-family="Times,serif" font-size="14.00" fill="#000000">Y</text>
</g>
<!-- 18&#45;&gt;11 -->
<g id="edge23" class="edge">
<title>18-&gt;11</title>
<path fill="none" stroke="#000000" d="M318.4517,-292.924C344.6443,-309.3508 375.3295,-332.04 396.698,-358.6526 421.7437,-389.8449 401.549,-415.8708 432.4764,-441.2427 518.6688,-511.9521 569.2213,-468.3186 677.698,-494.0427 699.9273,-499.3141 723.2073,-505.0521 746.2478,-510.8645"/>
<polygon fill="#000000" stroke="#000000" points="745.5508,-514.2984 756.1039,-513.359 747.2683,-507.5124 745.5508,-514.2984"/>
<text text-anchor="middle" x="463.8088" y="-395.7477" font-family="Times,serif" font-size="14.00" fill="#000000">OPEN_BR</text>
</g>
<!-- 22 -->
<g id="node23" class="node">
<title>22</title>
<ellipse fill="none" stroke="#000000" cx="281.698" cy="-29.4156" rx="60.1586" ry="29.3315"/>
<text text-anchor="middle" x="281.698" y="-33.6156" font-family="Times,serif" font-size="14.00" fill="#000000">22</text>
<text text-anchor="middle" x="281.698" y="-16.8156" font-family="Times,serif" font-size="14.00" fill="#000000">X -&gt; DICT .</text>
</g>
<!-- 18&#45;&gt;22 -->
<g id="edge24" class="edge">
<title>18-&gt;22</title>
<path fill="none" stroke="#000000" stroke-dasharray="5,2" d="M183.5027,-237.9331C151.9013,-223.3048 119.1774,-201.6212 101.0416,-170.4626 87.8885,-147.8645 86.8909,-133.6184 101.0416,-111.6313 125.9369,-72.9495 173.9923,-52.2536 214.2842,-41.3042"/>
<polygon fill="#000000" stroke="#000000" points="215.2599,-44.6672 224.0751,-38.7899 213.5188,-37.8872 215.2599,-44.6672"/>
<text text-anchor="middle" x="118.0262" y="-136.8469" font-family="Times,serif" font-size="14.00" fill="#000000">DICT</text>
</g>
<!-- 23 -->
<g id="node24" class="node">
<title>23</title>
<ellipse fill="none" stroke="#000000" cx="336.698" cy="-141.0469" rx="193.8963" ry="29.3315"/>
<text text-anchor="middle" x="336.698" y="-145.2469" font-family="Times,serif" font-size="14.00" fill="#000000">23</text>
<text text-anchor="middle" x="336.698" y="-128.4469" font-family="Times,serif" font-size="14.00" fill="#000000">DICT -&gt; OPEN_BR CLOS_BR COMMA X .</text>
</g>
<!-- 18&#45;&gt;23 -->
<g id="edge25" class="edge">
<title>18-&gt;23</title>
<path fill="none" stroke="#000000" stroke-dasharray="5,2" d="M283.4648,-234.9737C292.9022,-218.322 304.7935,-197.3405 314.9421,-179.4339"/>
<polygon fill="#000000" stroke="#000000" points="318.1823,-180.8151 320.0681,-170.3894 312.0924,-177.3636 318.1823,-180.8151"/>
<text text-anchor="middle" x="313.7513" y="-192.6626" font-family="Times,serif" font-size="14.00" fill="#000000">X</text>
</g>
<!-- 24 -->
<g id="node25" class="node">
<title>24</title>
<ellipse fill="none" stroke="#000000" cx="790.698" cy="-141.0469" rx="241.645" ry="29.3315"/>
<text text-anchor="middle" x="790.698" y="-145.2469" font-family="Times,serif" font-size="14.00" fill="#000000">24</text>
<text text-anchor="middle" x="790.698" y="-128.4469" font-family="Times,serif" font-size="14.00" fill="#000000">DICT -&gt; OPEN_BR REP_PAIR CLOS_BR COMMA . X</text>
</g>
<!-- 19&#45;&gt;24 -->
<g id="edge26" class="edge">
<title>19-&gt;24</title>
<path fill="none" stroke="#000000" d="M760.8076,-223.0867C765.8619,-209.2141 771.476,-193.8052 776.4615,-180.1216"/>
<polygon fill="#000000" stroke="#000000" points="779.8288,-181.1034 779.9636,-170.5094 773.2518,-178.7071 779.8288,-181.1034"/>
<text text-anchor="middle" x="799.9175" y="-192.6626" font-family="Times,serif" font-size="14.00" fill="#000000">COMMA</text>
</g>
<!-- 24&#45;&gt;11 -->
<g id="edge27" class="edge">
<title>24-&gt;11</title>
<path fill="none" stroke="#000000" d="M919.6078,-166.0358C949.7987,-178.2137 978.4457,-196.3256 996.698,-223.2626 1051.0428,-303.4648 1021.7597,-347.6603 996.698,-441.2427 992.599,-456.5487 985.9795,-471.9251 978.4417,-486.2841"/>
<polygon fill="#000000" stroke="#000000" points="975.3581,-484.6282 973.644,-495.0834 981.504,-487.9791 975.3581,-484.6282"/>
<text text-anchor="middle" x="1058.8088" y="-328.0526" font-family="Times,serif" font-size="14.00" fill="#000000">OPEN_BR</text>
</g>
<!-- 24&#45;&gt;22 -->
<g id="edge28" class="edge">
<title>24-&gt;22</title>
<path fill="none" stroke="#000000" stroke-dasharray="5,2" d="M673.2841,-115.2963C571.8222,-93.0442 428.9264,-61.705 346.755,-43.6836"/>
<polygon fill="#000000" stroke="#000000" points="347.3151,-40.2233 336.7975,-41.4998 345.8155,-47.0608 347.3151,-40.2233"/>
<text text-anchor="middle" x="583.0262" y="-81.0313" font-family="Times,serif" font-size="14.00" fill="#000000">DICT</text>
</g>
<!-- 25 -->
<g id="node26" class="node">
<title>25</title>
<ellipse fill="none" stroke="#000000" cx="790.698" cy="-29.4156" rx="241.645" ry="29.3315"/>
<text text-anchor="middle" x="790.698" y="-33.6156" font-family="Times,serif" font-size="14.00" fill="#000000">25</text>
<text text-anchor="middle" x="790.698" y="-16.8156" font-family="Times,serif" font-size="14.00" fill="#000000">DICT -&gt; OPEN_BR REP_PAIR CLOS_BR COMMA X .</text>
</g>
<!-- 24&#45;&gt;25 -->
<g id="edge29" class="edge">
<title>24-&gt;25</title>
<path fill="none" stroke="#000000" stroke-dasharray="5,2" d="M790.698,-111.4249C790.698,-98.5568 790.698,-83.2867 790.698,-69.4319"/>
<polygon fill="#000000" stroke="#000000" points="794.1981,-69.1761 790.698,-59.1761 787.1981,-69.1762 794.1981,-69.1761"/>
<text text-anchor="middle" x="795.7513" y="-81.0313" font-family="Times,serif" font-size="14.00" fill="#000000">X</text>
</g>
</g>
</svg>